<svg height="512pt" viewBox="0 0 512 512" width="512pt" xmlns="http://www.w3.org/2000/svg"><path d="m394.597656 483.847656c-.808594 0-1.632812-.132812-2.441406-.410156l-120.730469-41.582031c-1.078125-.371094-2.054687-.980469-2.863281-1.789063l-196.628906-196.628906c-.804688-.808594-1.417969-1.785156-1.789063-2.863281l-41.582031-120.730469c-1.347656-3.914062.734375-8.183594 4.652344-9.53125 3.914062-1.347656 8.183594.730469 9.53125 4.648438l41.019531 119.09375 194.179687 194.183593 119.09375 41.015625c3.917969 1.347656 6 5.617188 4.648438 9.53125-1.070312 3.109375-3.976562 5.0625-7.089844 5.0625zm0 0" fill="#c6c6c6"/><path d="m235.1875 434.765625-157.953125-157.953125c-10.679687-10.679688-10.679687-28 0-38.679688 10.683594-10.683593 28-10.683593 38.683594 0l157.949219 157.949219c10.683593 10.683594 10.683593 28 0 38.683594-10.679688 10.679687-28 10.679687-38.679688 0zm0 0" fill="#59c2e8"/><path d="m134.0625 469.160156-91.222656-91.222656c-5.082032-5.082031-5.363282-13.230469-.644532-18.652344l275.859376-316.707031c5.203124-5.972656 14.378906-6.289063 19.980468-.6875l132.074219 132.074219c5.601563 5.601562 5.285156 14.777344-.6875 19.984375l-316.707031 275.855469c-5.421875 4.71875-13.570313 4.4375-18.652344-.644532zm0 0" fill="#495560"/><path d="m8.039062 110.652344c7.226563 7.226562 17.886719 9.875 27.617188 6.75 98.597656-31.679688 211.15625-8.472656 289.285156 69.65625s101.335938 190.6875 69.65625 289.285156c-3.125 9.730469-.476562 20.390625 6.75 27.617188 14.488282 14.484374 39.199219 8.539062 45.46875-10.96875 37.769532-117.449219 10.042969-251.378907-83.195312-344.613282-93.234375-93.238281-227.164063-120.964844-344.613282-83.195312-19.507812 6.269531-25.453124 30.980468-10.96875 45.46875zm0 0" fill="#e37858"/><path d="m401.347656 503.960938c2.976563 2.972656 6.382813 5.070312 9.972656 6.382812 16.050782-37.988281 24.488282-79.171875 24.488282-121.65625 0-83.472656-32.503906-161.949219-91.527344-220.96875-59.023438-59.023438-137.496094-91.53125-220.96875-91.527344-42.484375 0-83.667969 8.4375-121.65625 24.488282 1.308594 3.589843 3.410156 6.996093 6.382812 9.972656 7.226563 7.226562 17.886719 9.875 27.617188 6.75 98.597656-31.679688 211.15625-8.472656 289.285156 69.65625s101.335938 190.6875 69.65625 289.285156c-3.125 9.730469-.476562 20.390625 6.75 27.617188zm0 0" fill="#dd6642"/><path d="m463.585938 87.097656-403.257813 403.253906c-10.679687 10.683594-28 10.683594-38.679687 0-10.683594-10.679687-10.683594-28 0-38.679687l403.253906-403.257813c10.683594-10.683593 28-10.683593 38.683594 0 10.679687 10.683594 10.679687 28 0 38.683594zm0 0" fill="#e3e3e3"/><path d="m40.988281 471.011719 403.257813-403.257813c7.152344-7.152344 17.28125-9.492187 26.402344-7.0625-1.199219-4.496094-3.535157-8.75-7.0625-12.277344-10.683594-10.683593-28-10.683593-38.683594 0l-403.253906 403.257813c-10.683594 10.679687-10.683594 28 0 38.679687 3.527343 3.527344 7.78125 5.867188 12.277343 7.0625-2.429687-9.121093-.089843-19.25 7.0625-26.402343zm0 0" fill="#d1d1d1"/><path d="m403.25 17 92.632812-16.773438c9.390626-1.703124 17.59375 6.5 15.890626 15.890626l-16.773438 92.632812c-1.96875 10.859375-15.324219 15.035156-23.128906 7.230469l-75.855469-75.851563c-7.800781-7.804687-3.625-21.164062 7.234375-23.128906zm0 0" fill="#f4f4f4"/><path d="m507.988281 4.011719c-3.011719-3.011719-7.410156-4.636719-12.105469-3.785157l-92.632812 16.773438c-10.859375 1.96875-15.035156 15.324219-7.230469 23.128906l37.925781 37.925782zm0 0" fill="#e3e3e3"/></svg>