<?xml version="1.0" encoding="utf-8"?>
<!-- Generator: Adobe Illustrator 22.0.0, SVG Export Plug-In . SVG Version: 6.00 Build 0)  -->
<svg xmlns="http://www.w3.org/2000/svg" xmlns:xlink="http://www.w3.org/1999/xlink" version="1.1" id="Layer_2" x="0px" y="0px" viewBox="0 0 256 256" style="enable-background:new 0 0 256 256;" xml:space="preserve" width="512" height="512">
<style type="text/css">
	.st0{fill:#3A312A;}
	.st1{fill:#D7E057;}
	.st2{fill:#FCE8CB;}
	.st3{fill:#F16C7A;}
	.st4{fill:#87796F;}
	.st5{fill:#8AC6DD;}
	.st6{fill:#D34E5C;}
	.st7{fill:#6CA8BF;}
	.st8{fill-rule:evenodd;clip-rule:evenodd;fill:#FCE8CB;}
	.st9{fill:#695B51;}
	.st10{fill:#B9C239;}
	.st11{fill:#DECAAD;}
	.st12{fill:#FCE8CB;stroke:#3A312A;stroke-width:3;stroke-linecap:round;stroke-linejoin:round;stroke-miterlimit:10;}
	.st13{fill:#F5978A;}
</style>
<g>
	<g>
		<g>
			<path class="st2" d="M108.57,191.208c-3.997,0-5.104,4.256-5.104,9.507c0,5.25,1.108,9.507,5.104,9.507     c3.996,0,7.236-4.256,7.236-9.507C115.806,195.465,112.566,191.208,108.57,191.208z"/>
		</g>
	</g>
	<g>
		<g>
			<path class="st0" d="M108.57,189.708c-4.382,0-6.604,3.703-6.604,11.007s2.222,11.007,6.604,11.007     c4.817,0,8.736-4.938,8.736-11.007S113.387,189.708,108.57,189.708z M108.57,208.722c-0.892,0-3.604,0-3.604-8.007     s2.713-8.007,3.604-8.007c3.163,0,5.736,3.592,5.736,8.007S111.733,208.722,108.57,208.722z"/>
		</g>
	</g>
	<g>
		<g>
			<rect x="35.302" y="194.985" class="st4" width="68.164" height="44.682"/>
		</g>
	</g>
	<g>
		<g>
			<path class="st0" d="M103.465,193.485H35.302c-0.829,0-1.5,0.672-1.5,1.5v44.682c0,0.828,0.671,1.5,1.5,1.5h68.164     c0.829,0,1.5-0.672,1.5-1.5v-44.682C104.965,194.157,104.294,193.485,103.465,193.485z M101.965,238.167H36.802v-41.682h65.164     V238.167z"/>
		</g>
	</g>
	<g>
		<g>
			<path class="st0" d="M69.061,212.235c-0.829,0-1.5,0.672-1.5,1.5v25.935c0,0.828,0.671,1.5,1.5,1.5s1.5-0.672,1.5-1.5v-25.935     C70.561,212.907,69.89,212.235,69.061,212.235z"/>
		</g>
	</g>
	<g>
		<g>
			<path class="st2" d="M94.025,130.695H80.637v-8.702c-3.703,2.568-7.535,4.082-11.253,4.082c-3.567,0-7.331-1.529-11.018-4.127     h-0.227v8.747H44.741c-11.193,0-20.265,9.072-20.265,20.264v44.023h89.814v-18.365     C114.29,139.767,105.218,130.695,94.025,130.695z"/>
		</g>
	</g>
	<g>
		<g>
			<path class="st0" d="M94.025,129.195H82.137v-7.202c0-0.558-0.31-1.07-0.804-1.329c-0.495-0.258-1.092-0.222-1.55,0.097     c-3.651,2.531-7.15,3.814-10.399,3.814c-3.108,0-6.525-1.297-10.155-3.854c-0.253-0.178-0.555-0.273-0.864-0.273h-0.227     c-0.829,0-1.5,0.672-1.5,1.5v7.247H44.741c-12.001,0-21.765,9.764-21.765,21.765v44.023c0,0.828,0.671,1.5,1.5,1.5H60.91     c0.829,0,1.5-0.672,1.5-1.5s-0.671-1.5-1.5-1.5H25.976V150.96c0-10.347,8.418-18.765,18.765-18.765h13.397     c0.829,0,1.5-0.672,1.5-1.5v-6.136c3.384,2.003,6.653,3.016,9.746,3.016c3.138,0,6.41-0.962,9.753-2.863v5.983     c0,0.828,0.671,1.5,1.5,1.5h13.389c8.056,0,18.765,4.605,18.765,44.424v16.864H76.213c-0.829,0-1.5,0.672-1.5,1.5     s0.671,1.5,1.5,1.5h38.078c0.829,0,1.5-0.672,1.5-1.5v-18.364C115.79,144.265,108.874,129.195,94.025,129.195z"/>
		</g>
	</g>
	<g>
		<g>
			<path class="st5" d="M94.026,130.689h-3.203l0.083,0.061l-13.927,18.47l-7.187-5.415l-7.187,5.415L48.68,130.75l0.083-0.061     h-4.021c-11.193,0-20.265,9.073-20.265,20.266v44.031h89.814v-18.372C114.291,139.762,105.219,130.689,94.026,130.689z"/>
		</g>
	</g>
	<g>
		<g>
			<path class="st0" d="M94.026,129.188h-3.204c-0.648,0-1.223,0.416-1.425,1.031c-0.007,0.022-0.014,0.044-0.02,0.065     l-12.693,16.834l-5.989-4.512c-0.534-0.402-1.271-0.402-1.805,0l-5.989,4.512l-12.693-16.835     c-0.006-0.021-0.013-0.044-0.02-0.066c-0.203-0.614-0.777-1.029-1.424-1.029h-4.021c-12.002,0-21.765,9.764-21.765,21.766v44.031     c0,0.828,0.671,1.5,1.5,1.5h89.814c0.829,0,1.5-0.672,1.5-1.5v-18.372C115.791,144.258,108.875,129.188,94.026,129.188z      M112.791,193.485H25.977v-42.531c0-10.348,8.418-18.766,18.765-18.766h3.144l13.523,17.935c0.498,0.66,1.44,0.791,2.1,0.295     l6.284-4.734l6.284,4.734c0.661,0.496,1.601,0.365,2.1-0.295L91.7,132.188h2.326c8.056,0,18.765,4.605,18.765,44.425V193.485z"/>
		</g>
	</g>
	<g>
		<g>
			<path class="st8" d="M34.586,72.485c-4.404,0-7.974,3.57-7.974,7.974c0,4.404,3.57,7.974,7.974,7.974     c4.404,0,7.974-3.57,7.974-7.974C42.56,76.055,38.99,72.485,34.586,72.485z"/>
		</g>
	</g>
	<g>
		<g>
			<path class="st0" d="M34.586,70.985c-5.224,0-9.474,4.25-9.474,9.474c0,5.225,4.25,9.475,9.474,9.475     c5.224,0,9.474-4.25,9.474-9.475C44.06,75.235,39.81,70.985,34.586,70.985z M34.586,86.934c-3.569,0-6.474-2.904-6.474-6.475     c0-3.569,2.904-6.474,6.474-6.474c3.569,0,6.474,2.904,6.474,6.474C41.06,84.029,38.155,86.934,34.586,86.934z"/>
		</g>
	</g>
	<g>
		<g>
			<path class="st8" d="M104.183,72.485c-4.404,0-7.974,3.57-7.974,7.974c0,4.404,3.57,7.974,7.974,7.974     c4.404,0,7.974-3.57,7.974-7.974C112.157,76.055,108.587,72.485,104.183,72.485z"/>
		</g>
	</g>
	<g>
		<g>
			<path class="st0" d="M104.184,70.985c-5.224,0-9.474,4.25-9.474,9.474c0,5.225,4.25,9.475,9.474,9.475     c5.224,0,9.474-4.25,9.474-9.475C113.657,75.235,109.407,70.985,104.184,70.985z M104.184,86.934     c-3.57,0-6.474-2.904-6.474-6.475c0-3.569,2.904-6.474,6.474-6.474c3.569,0,6.474,2.904,6.474,6.474     C110.657,84.029,107.753,86.934,104.184,86.934z"/>
		</g>
	</g>
	<g>
		<g>
			<path class="st2" d="M69.385,41.24c-19.523,0-35.349,15.826-35.349,35.349c0,19.523,19.554,49.488,35.349,49.488     c16.547,0,35.349-29.966,35.349-49.488C104.733,57.066,88.907,41.24,69.385,41.24z"/>
		</g>
	</g>
	<g>
		<g>
			<path class="st0" d="M69.385,39.74c-20.319,0-36.849,16.53-36.849,36.849c0,9.577,4.605,22.19,12.018,32.918     c7.936,11.483,16.986,18.07,24.832,18.07c8.133,0,17.289-6.589,25.119-18.078c7.235-10.616,11.73-23.227,11.73-32.91     C106.233,56.271,89.703,39.74,69.385,39.74z M92.024,107.81c-7.156,10.499-15.619,16.768-22.64,16.768     c-14.939,0-33.849-29.754-33.849-47.988c0-18.664,15.185-33.849,33.849-33.849c18.664,0,33.849,15.185,33.849,33.849     C103.233,85.701,98.938,97.665,92.024,107.81z"/>
		</g>
	</g>
	<g>
		<g>
			<path class="st0" d="M56.904,72.739c-1.905,0-3.45,1.545-3.45,3.45c0,1.906,1.545,3.45,3.45,3.45c1.906,0,3.45-1.544,3.45-3.45     C60.355,74.284,58.81,72.739,56.904,72.739z"/>
		</g>
	</g>
	<g>
		<g>
			<path class="st0" d="M81.865,72.739c-1.906,0-3.45,1.545-3.45,3.45c0,1.906,1.545,3.45,3.45,3.45c1.906,0,3.45-1.544,3.45-3.45     C85.315,74.284,83.77,72.739,81.865,72.739z"/>
		</g>
	</g>
	<g>
		<g>
			<path class="st13" d="M50.009,82.004c-3.282,0-5.943,1.989-5.943,4.443s2.661,4.443,5.943,4.443c3.283,0,5.944-1.989,5.944-4.443     S53.291,82.004,50.009,82.004z"/>
		</g>
	</g>
	<g>
		<g>
			<path class="st13" d="M88.76,82.004c-3.282,0-5.943,1.989-5.943,4.443s2.661,4.443,5.943,4.443c3.282,0,5.943-1.989,5.943-4.443     S92.043,82.004,88.76,82.004z"/>
		</g>
	</g>
	<g>
		<g>
			<path class="st4" d="M106.38,68.418c0-19.319-16.381-34.98-36.587-34.98c-20.206,0-36.587,15.661-36.587,34.98     c0,2.044,0.37,3.568,1.057,5.472c0.324,0.897,5.563-1.969,6.009-2.282c2.231-1.571,4.054-3.699,5.416-6.053     c0.563-0.979,1.033-1.974,1.411-2.97c1.206-3.178,4.483-12.02,7.81-11.326c4.462,0.93,9.519,1.456,14.883,1.456     s10.422-0.526,14.884-1.456c3.327-0.694,6.604,8.148,7.81,11.326c0.378,0.996,0.848,1.992,1.411,2.97     c2.251,3.893,6.052,7.6,10.677,8.274c0.012-0.223,0.294-0.3,0.504-0.376C106.592,72.903,106.38,69.632,106.38,68.418z"/>
		</g>
	</g>
	<g>
		<g>
			<path class="st0" d="M107.884,68.806l-0.004-0.388c0-20.115-17.086-36.479-38.087-36.479c-21.001,0-38.087,16.365-38.087,36.48     c0,2.328,0.458,4.074,1.146,5.979c0.185,0.511,0.596,0.9,1.129,1.068c0.167,0.053,0.357,0.077,0.566,0.077     c2.215,0,6.545-2.68,6.588-2.71c2.288-1.611,4.312-3.868,5.853-6.531c0.592-1.027,1.101-2.099,1.514-3.187l0.077-0.201     c3.825-10.093,5.693-10.258,6.024-10.188c4.734,0.986,9.845,1.486,15.189,1.486s10.455-0.5,15.19-1.486     c0.334-0.079,2.197,0.093,6.023,10.184l0.078,0.205c0.412,1.086,0.921,2.158,1.515,3.189c2.882,4.986,7.278,8.354,11.759,9.008     c0.419,0.063,0.841-0.058,1.168-0.324c0.063-0.052,0.121-0.108,0.174-0.169C107.958,73.896,107.91,70.593,107.884,68.806z      M104.521,72.06c-0.142,0.05-0.271,0.104-0.387,0.164c-3.358-0.751-6.659-3.477-8.937-7.417     c-0.513-0.891-0.953-1.817-1.309-2.755l-0.077-0.204c-2.56-6.751-5.463-12.864-9.441-12.058     c-4.533,0.945-9.438,1.424-14.577,1.424c-5.139,0-10.044-0.479-14.577-1.424c-3.972-0.815-6.883,5.308-9.443,12.062l-0.076,0.2     c-0.357,0.938-0.797,1.865-1.308,2.752c-1.323,2.286-3.046,4.215-4.969,5.569c-0.539,0.355-2.811,1.532-4.091,1.998     c-0.4-1.268-0.625-2.436-0.625-3.952c0-18.461,15.74-33.48,35.087-33.48c19.347,0,35.087,15.019,35.087,33.479l0.004,0.432     C104.918,71.159,104.688,71.886,104.521,72.06z"/>
		</g>
	</g>
	<g>
		<g>
			<path class="st0" d="M41.3,153.312c-0.829,0-1.5,0.672-1.5,1.5v40.174c0,0.828,0.671,1.5,1.5,1.5c0.829,0,1.5-0.672,1.5-1.5     v-40.174C42.8,153.983,42.128,153.312,41.3,153.312z"/>
		</g>
	</g>
	<g>
		<g>
			<path class="st0" d="M98.285,153.312c-0.829,0-1.5,0.672-1.5,1.5v40.174c0,0.828,0.671,1.5,1.5,1.5c0.829,0,1.5-0.672,1.5-1.5     v-40.174C99.785,153.983,99.114,153.312,98.285,153.312z"/>
		</g>
	</g>
	<g>
		<g>
			<path class="st4" d="M69.132,20.742C44.214,35.401,29.75,7.221,29.75,20.073c0,4.062,1.637,8.113,3.785,11.8l5.947,8.43     c6,7.556,13.178,15.611,21.847,18.076c13.963,3.97,38.677-0.982,38.677-21.08C100.006,24.447,89.234,8.915,69.132,20.742z"/>
		</g>
	</g>
	<g>
		<g>
			<path class="st0" d="M91.052,17.263c-4.386-2.509-11.883-4.166-22.681,2.187c-14.252,8.388-24.896,2.002-31.255-1.812     c-3.207-1.924-5.327-3.192-7.137-2.168c-1.531,0.867-1.728,2.916-1.728,4.604c0,3.844,1.305,7.951,3.989,12.556     c0.022,0.037,0.045,0.073,0.07,0.108l5.947,8.431c0.016,0.023,0.033,0.046,0.051,0.068c6.477,8.156,13.699,16.053,22.612,18.586     c2.986,0.85,6.494,1.315,10.181,1.315c7.516,0,15.771-1.938,21.828-6.513c5.612-4.238,8.578-10.229,8.578-17.325     C101.506,30.302,98.273,21.393,91.052,17.263z M91.12,52.23c-8.245,6.229-21.021,7.082-29.38,4.706     c-8.085-2.299-14.898-9.782-21.056-17.533l-5.884-8.343c-2.388-4.109-3.548-7.704-3.548-10.988c0-1.243,0.151-1.766,0.233-1.958     c0.709,0.068,2.574,1.187,4.089,2.095c6.476,3.887,18.531,11.114,34.32,1.826c7.566-4.45,14.368-5.2,19.67-2.169     c6.178,3.533,8.943,11.302,8.943,17.433C98.506,43.505,96.021,48.528,91.12,52.23z"/>
		</g>
	</g>
	<g>
		<g>
			<path class="st0" d="M79.677,97.777c-0.777-0.292-1.64,0.102-1.931,0.878c-0.661,1.767-3.26,5.106-8.363,5.106     c-4.043,0-6.716-1.66-8.413-5.225c-0.356-0.748-1.251-1.063-1.999-0.71c-0.748,0.356-1.066,1.251-0.71,1.999     c2.191,4.603,5.933,6.936,11.122,6.936c5.861,0,9.9-3.656,11.172-7.054C80.846,98.932,80.453,98.067,79.677,97.777z"/>
		</g>
	</g>
	<g>
		<g>
			<path class="st1" d="M99.141,28.29H39.626c-6.776,0-12.263,5.492-12.263,12.263v14.438c0,6.771,5.488,12.263,12.263,12.263     h18.784c4.379,0,8.427-2.34,10.621-6.134c0.217-0.377,0.604-0.571,0.991-0.571c0.382,0,0.764,0.193,0.986,0.571     c1.095,1.897,2.656,3.43,4.487,4.492c1.835,1.057,3.945,1.642,6.134,1.642h17.51c6.771,0,12.263-5.492,12.263-12.263V40.554     C111.404,33.783,105.912,28.29,99.141,28.29z"/>
		</g>
	</g>
	<g>
		<g>
			<path class="st0" d="M99.141,26.79H39.626c-7.589,0-13.764,6.175-13.764,13.764v14.438c0,7.589,6.174,13.764,13.764,13.764     h18.784c4.696,0,9.089-2.426,11.61-6.373c1.184,1.859,2.807,3.417,4.727,4.53c2.092,1.205,4.473,1.843,6.883,1.843h17.51     c7.589,0,13.764-6.175,13.764-13.764V40.554C112.904,32.965,106.73,26.79,99.141,26.79z M109.904,54.992     c0,5.936-4.829,10.764-10.764,10.764H81.63c-1.885,0-3.748-0.499-5.381-1.44c-1.637-0.949-3-2.312-3.947-3.953     c-0.482-0.821-1.334-1.312-2.279-1.312c-0.945,0-1.823,0.508-2.289,1.32c-1.922,3.321-5.494,5.385-9.323,5.385H39.626     c-5.935,0-10.764-4.828-10.764-10.764V40.554c0-5.936,4.829-10.764,10.764-10.764h59.514c5.935,0,10.764,4.828,10.764,10.764     V54.992z"/>
		</g>
	</g>
	<g>
		<g>
			<path class="st5" d="M99.139,35.93H39.625c-2.549,0-4.623,2.074-4.623,4.623v14.438c0,2.549,2.074,4.623,4.623,4.623H58.41     c1.647,0,3.181-0.886,4.004-2.312l1.783-3.088c1.215-2.105,3.392-3.362,5.823-3.362c2.431,0,4.608,1.257,5.824,3.363l1.782,3.087     c0.823,1.426,2.357,2.312,4.004,2.312h17.509c2.549,0,4.623-2.074,4.623-4.623V40.554C103.762,38.004,101.688,35.93,99.139,35.93     z"/>
		</g>
	</g>
	<g>
		<g>
			<path class="st0" d="M99.139,34.431H59.467c-0.829,0-1.5,0.672-1.5,1.5s0.671,1.5,1.5,1.5h39.672     c1.722,0,3.123,1.401,3.123,3.123v14.438c0,1.722-1.401,3.123-3.123,3.123H81.629c-1.112,0-2.149-0.599-2.705-1.562l-1.782-3.087     c-1.487-2.575-4.15-4.113-7.123-4.113c-2.973,0-5.636,1.537-7.122,4.112l-1.783,3.088c-0.556,0.963-1.592,1.562-2.704,1.562     H39.625c-1.722,0-3.124-1.401-3.124-3.123V40.554c0-1.722,1.401-3.123,3.124-3.123h4.769c0.829,0,1.5-0.672,1.5-1.5     s-0.671-1.5-1.5-1.5h-4.769c-3.377,0-6.124,2.747-6.124,6.123v14.438c0,3.376,2.747,6.123,6.124,6.123H58.41     c2.181,0,4.213-1.173,5.302-3.062l1.783-3.088c0.944-1.636,2.635-2.612,4.524-2.612c1.889,0,3.58,0.977,4.525,2.613l1.782,3.087     c1.09,1.889,3.122,3.062,5.303,3.062h17.509c3.376,0,6.123-2.747,6.123-6.123V40.554     C105.262,37.178,102.515,34.431,99.139,34.431z"/>
		</g>
	</g>
	<g>
		<g>
			<path class="st4" d="M100.084,146.256c-2.348-3.286-3.922-9.348-3.922-16.282c0-0.777,0.02-1.542,0.058-2.293     c0.103-2.036-1.412-3.744-3.316-3.744H90.07c-1.637,0-3.016,1.28-3.281,3.01c-1.372,8.967-8.645,15.81-17.406,15.81     c-8.762,0-16.034-6.843-17.406-15.81c-0.265-1.73-1.644-3.01-3.281-3.01h-2.833c-1.904,0-3.419,1.708-3.316,3.744     c0.038,0.751,0.058,1.517,0.058,2.293c0,6.934-1.574,12.996-3.922,16.282c-2.132,2.984-3.382,6.582-3.382,10.34v38.389h68.164     v-38.389C103.466,152.838,102.216,149.24,100.084,146.256z"/>
		</g>
	</g>
	<g>
		<g>
			<path class="st0" d="M101.304,145.384c-2.247-3.145-3.643-9.049-3.643-15.41c0-0.75,0.019-1.489,0.056-2.217     c0.073-1.426-0.437-2.823-1.398-3.835c-0.911-0.958-2.123-1.485-3.415-1.485H90.07c-2.38,0-4.383,1.802-4.764,4.284     c-1.289,8.422-7.985,14.535-15.923,14.535c-7.938,0-14.635-6.113-15.924-14.535c-0.38-2.482-2.383-4.284-4.764-4.284h-2.833     c-1.292,0-2.505,0.527-3.416,1.485c-0.961,1.012-1.471,2.409-1.398,3.835c0.037,0.727,0.056,1.466,0.056,2.217     c0,6.361-1.396,12.267-3.643,15.41c-2.395,3.352-3.661,7.229-3.661,11.213v38.389c0,0.828,0.671,1.5,1.5,1.5h68.164     c0.829,0,1.5-0.672,1.5-1.5v-38.389C104.965,152.613,103.699,148.735,101.304,145.384z M101.965,193.485H36.802v-36.889     c0-3.354,1.073-6.629,3.102-9.469c2.631-3.682,4.202-10.094,4.202-17.154c0-0.802-0.02-1.592-0.06-2.369     c-0.031-0.608,0.179-1.197,0.576-1.615c0.339-0.356,0.779-0.553,1.241-0.553h2.833c0.888,0,1.644,0.73,1.798,1.737     c1.515,9.898,9.459,17.082,18.89,17.082s17.374-7.184,18.889-17.081c0.154-1.008,0.91-1.738,1.798-1.738h2.834     c0.462,0,0.902,0.196,1.241,0.553c0.397,0.418,0.607,1.007,0.576,1.614c-0.04,0.777-0.06,1.567-0.06,2.37     c0,7.06,1.571,13.473,4.202,17.154c2.029,2.84,3.102,6.114,3.102,9.469V193.485z"/>
		</g>
	</g>
	<g>
		<g>
			<path class="st2" d="M127.412,201.035c-3.997,0-7.236,4.256-7.236,9.507c0,5.25,3.24,9.507,7.236,9.507     c3.997,0,5.104-4.256,5.104-9.507C132.517,205.291,131.409,201.035,127.412,201.035z"/>
		</g>
	</g>
	<g>
		<g>
			<path class="st0" d="M127.413,199.535c-4.817,0-8.736,4.938-8.736,11.007c0,6.068,3.919,11.006,8.736,11.006     c4.382,0,6.604-3.703,6.604-11.006C134.017,203.238,131.795,199.535,127.413,199.535z M127.413,218.548     c-3.163,0-5.736-3.592-5.736-8.006c0-4.415,2.573-8.007,5.736-8.007c0.892,0,3.604,0,3.604,8.007     C131.017,218.548,128.304,218.548,127.413,218.548z"/>
		</g>
	</g>
	<g>
		<g>
			<path class="st0" d="M204.661,83.213c-0.828,0-1.5,0.672-1.5,1.5v14.515c0,0.828,0.672,1.5,1.5,1.5s1.5-0.672,1.5-1.5V84.713     C206.161,83.885,205.489,83.213,204.661,83.213z"/>
		</g>
	</g>
	<g>
		<g>
			<rect x="128.196" y="70.155" class="st4" width="75.867" height="86.835"/>
		</g>
	</g>
	<g>
		<g>
			<path class="st0" d="M204.062,68.655h-75.867c-0.829,0-1.5,0.672-1.5,1.5v86.835c0,0.828,0.671,1.5,1.5,1.5h75.867     c0.828,0,1.5-0.672,1.5-1.5V70.155C205.562,69.327,204.891,68.655,204.062,68.655z M202.562,155.49h-72.866V71.655h72.866V155.49     z"/>
		</g>
	</g>
	<g>
		<g>
			<path class="st2" d="M191.273,139.913h-13.389v-8.701c-3.703,2.567-7.535,4.082-11.253,4.082c-3.567,0-7.331-1.53-11.019-4.128     h-0.227v8.747h-13.397c-11.192,0-20.265,9.072-20.265,20.265v9.191h89.814v-9.191     C211.538,148.985,202.466,139.913,191.273,139.913z"/>
		</g>
	</g>
	<g>
		<g>
			<path class="st0" d="M191.273,138.413h-11.889v-7.201c0-0.558-0.31-1.07-0.804-1.329s-1.091-0.223-1.551,0.097     c-3.652,2.531-7.151,3.814-10.399,3.814c-3.107,0-6.523-1.297-10.155-3.854c-0.252-0.178-0.554-0.273-0.863-0.273h-0.227     c-0.828,0-1.5,0.672-1.5,1.5v7.247h-11.897c-12.001,0-21.764,9.764-21.764,21.765v9.191c0,0.828,0.671,1.5,1.5,1.5h89.814     c0.828,0,1.5-0.672,1.5-1.5v-9.191C213.038,148.177,203.274,138.413,191.273,138.413z M210.038,167.869h-86.814v-7.691     c0-10.347,8.418-18.765,18.764-18.765h13.397c0.828,0,1.5-0.672,1.5-1.5v-6.135c3.385,2.003,6.654,3.016,9.745,3.016     c3.138,0,6.409-0.962,9.754-2.863v5.982c0,0.828,0.672,1.5,1.5,1.5h13.389c10.347,0,18.765,8.418,18.765,18.765V167.869z"/>
		</g>
	</g>
	<g>
		<g>
			<path class="st3" d="M191.273,139.907h-3.203l0.083,0.061l-13.926,18.47l-7.187-5.415l-7.187,5.415l-13.927-18.47l0.083-0.061     h-4.021c-11.193,0-20.265,9.073-20.265,20.265v44.668h89.815v-44.668C211.539,148.98,202.466,139.907,191.273,139.907z"/>
		</g>
	</g>
	<g>
		<g>
			<path class="st0" d="M191.273,138.407h-3.203c-0.649,0-1.225,0.418-1.426,1.035c-0.007,0.02-0.013,0.039-0.019,0.06     l-12.694,16.836l-5.989-4.513c-0.533-0.402-1.271-0.402-1.805,0l-5.989,4.513l-12.693-16.834     c-0.005-0.02-0.011-0.038-0.017-0.058c-0.2-0.619-0.777-1.039-1.428-1.039h-4.021c-12.001,0-21.765,9.764-21.765,21.765v44.668     c0,0.828,0.671,1.5,1.5,1.5h89.814c0.828,0,1.5-0.672,1.5-1.5v-44.668C213.038,148.171,203.274,138.407,191.273,138.407z      M210.038,203.34h-86.814v-43.168c0-10.347,8.419-18.765,18.765-18.765h3.145l13.523,17.935c0.497,0.661,1.439,0.791,2.1,0.295     l6.284-4.735l6.284,4.735c0.662,0.497,1.603,0.367,2.1-0.295l13.522-17.935h2.327c10.347,0,18.765,8.418,18.765,18.765V203.34z"/>
		</g>
	</g>
	<g>
		<g>
			
				<ellipse transform="matrix(0.999 -0.0453 0.0453 0.999 -3.9283 6.0661)" class="st8" cx="131.834" cy="89.677" rx="7.974" ry="7.974"/>
		</g>
	</g>
	<g>
		<g>
			<path class="st0" d="M131.833,80.203c-5.224,0-9.473,4.25-9.473,9.475c0,5.224,4.25,9.474,9.473,9.474     c5.225,0,9.475-4.25,9.475-9.474C141.308,84.453,137.058,80.203,131.833,80.203z M131.833,96.151     c-3.569,0-6.473-2.904-6.473-6.474c0-3.57,2.904-6.475,6.473-6.475c3.57,0,6.475,2.904,6.475,6.475     C138.308,93.247,135.403,96.151,131.833,96.151z"/>
		</g>
	</g>
	<g>
		<g>
			<path class="st8" d="M201.431,81.704c-4.404,0-7.974,3.57-7.974,7.974c0,4.404,3.57,7.974,7.974,7.974     c4.404,0,7.974-3.57,7.974-7.974C209.405,85.273,205.835,81.704,201.431,81.704z"/>
		</g>
	</g>
	<g>
		<g>
			<path class="st0" d="M201.431,80.203c-5.224,0-9.474,4.25-9.474,9.475c0,5.224,4.25,9.474,9.474,9.474     c5.225,0,9.475-4.25,9.475-9.474C210.905,84.453,206.655,80.203,201.431,80.203z M201.431,96.151     c-3.569,0-6.474-2.904-6.474-6.474c0-3.57,2.904-6.475,6.474-6.475c3.57,0,6.475,2.904,6.475,6.475     C207.905,93.247,205.001,96.151,201.431,96.151z"/>
		</g>
	</g>
	<g>
		<g>
			<path class="st2" d="M166.632,50.458c-19.523,0-35.349,15.826-35.349,35.349c0,19.523,19.554,49.488,35.349,49.488     c16.547,0,35.349-29.966,35.349-49.488C201.981,66.284,186.155,50.458,166.632,50.458z"/>
		</g>
	</g>
	<g>
		<g>
			<path class="st0" d="M166.632,48.958c-20.318,0-36.849,16.53-36.849,36.849c0,9.577,4.604,22.19,12.018,32.918     c7.936,11.483,16.986,18.07,24.831,18.07c8.133,0,17.289-6.589,25.119-18.078c7.235-10.616,11.73-23.227,11.73-32.91     C203.481,65.488,186.951,48.958,166.632,48.958z M189.272,117.027c-7.156,10.499-15.62,16.768-22.641,16.768     c-14.938,0-33.849-29.754-33.849-47.988c0-18.664,15.185-33.849,33.849-33.849c18.665,0,33.85,15.185,33.85,33.849     C200.481,94.919,196.187,106.883,189.272,117.027z"/>
		</g>
	</g>
	<g>
		<g>
			<path class="st0" d="M154.152,81.958c-1.906,0-3.45,1.545-3.45,3.45s1.545,3.45,3.45,3.45s3.45-1.545,3.45-3.45     S156.058,81.958,154.152,81.958z"/>
		</g>
	</g>
	<g>
		<g>
			<circle class="st0" cx="179.112" cy="85.408" r="3.45"/>
		</g>
	</g>
	<g>
		<g>
			<path class="st13" d="M147.256,91.222c-3.282,0-5.943,1.989-5.943,4.443c0,2.454,2.661,4.443,5.943,4.443     c3.283,0,5.944-1.989,5.944-4.443C153.2,93.211,150.539,91.222,147.256,91.222z"/>
		</g>
	</g>
	<g>
		<g>
			<path class="st13" d="M186.008,91.222c-3.282,0-5.943,1.989-5.943,4.443c0,2.454,2.661,4.443,5.943,4.443     c3.283,0,5.943-1.989,5.943-4.443C191.951,93.211,189.29,91.222,186.008,91.222z"/>
		</g>
	</g>
	<g>
		<g>
			<path class="st0" d="M176.925,106.996c-0.777-0.293-1.64,0.102-1.931,0.878c-0.661,1.767-3.26,5.105-8.363,5.105     c-4.043,0-6.717-1.66-8.413-5.224c-0.355-0.748-1.251-1.064-1.999-0.71c-0.748,0.356-1.067,1.251-0.71,1.999     c2.19,4.602,5.933,6.935,11.122,6.935c5.861,0,9.9-3.656,11.172-7.053C178.094,108.15,177.7,107.286,176.925,106.996z"/>
		</g>
	</g>
	<g>
		<g>
			<path class="st4" d="M195.717,49.977c-7.427-6.819-17.938-11.073-29.591-11.073c-4.358,0-8.553,0.595-12.484,1.702     c3.114,6.276,6.794,12.302,11.807,17.548c2.304,2.405,4.858,4.625,7.56,6.685c2.201,1.701,4.505,3.307,6.846,4.849     c7.979,5.265,16.592,9.922,25.645,13.716c0.891-2.904,1.362-5.956,1.362-9.103C206.861,64.876,202.629,56.317,195.717,49.977z"/>
		</g>
	</g>
	<g>
		<g>
			<path class="st0" d="M196.731,48.873c-8.055-7.396-18.924-11.47-30.605-11.47c-4.408,0-8.745,0.592-12.89,1.758     c-0.43,0.121-0.783,0.428-0.965,0.836c-0.181,0.407-0.171,0.875,0.027,1.275c3.724,7.506,7.558,13.199,12.067,17.918     c2.223,2.321,4.824,4.622,7.725,6.834c2.028,1.568,4.298,3.176,6.938,4.915c8.264,5.452,16.975,10.11,25.892,13.847     c0.187,0.077,0.383,0.116,0.58,0.116c0.218,0,0.436-0.048,0.637-0.142c0.384-0.18,0.673-0.514,0.798-0.919     c0.946-3.088,1.427-6.299,1.427-9.542C208.361,64.781,204.23,55.751,196.731,48.873z M204.511,81.351     c-8.199-3.546-16.208-7.886-23.831-12.916c-2.577-1.697-4.786-3.262-6.762-4.789c-2.785-2.124-5.27-4.321-7.384-6.528     c-3.96-4.144-7.389-9.109-10.711-15.526c3.338-0.789,6.795-1.188,10.303-1.188c10.928,0,21.076,3.793,28.577,10.68     c6.873,6.304,10.658,14.55,10.658,23.217C205.361,76.685,205.075,79.049,204.511,81.351z"/>
		</g>
	</g>
	<g>
		<g>
			<path class="st4" d="M166.126,38.904c-4.358,0-8.553,0.595-12.484,1.702c-16.385,4.574-28.244,17.931-28.244,33.694     c0,3.333,0.53,6.557,1.524,9.615c16.069-5.124,31.769-11.278,46.086-19.076c8.075-4.395,15.701-9.308,22.708-14.861     C188.29,43.158,177.779,38.904,166.126,38.904z"/>
		</g>
	</g>
	<g>
		<g>
			<path class="st0" d="M196.731,48.873c-8.055-7.396-18.924-11.47-30.605-11.47c-4.408,0-8.745,0.592-12.887,1.758     c-17.55,4.898-29.341,19.021-29.341,35.139c0,3.427,0.538,6.818,1.598,10.078c0.206,0.634,0.793,1.036,1.426,1.036     c0.151,0,0.305-0.022,0.456-0.071c18.048-5.755,33.209-12.031,46.348-19.188c8.455-4.601,16.167-9.648,22.923-15.002     c0.344-0.272,0.552-0.683,0.567-1.121S197.055,49.17,196.731,48.873z M172.291,63.521c-12.616,6.872-27.144,12.929-44.369,18.497     c-0.68-2.516-1.024-5.105-1.024-7.718c0-14.757,10.91-27.717,27.15-32.25c3.88-1.093,7.943-1.646,12.077-1.646     c10.291,0,19.892,3.364,27.239,9.508C187.089,54.748,180.009,59.321,172.291,63.521z"/>
		</g>
	</g>
	<g>
		<g>
			<path class="st1" d="M196.388,37.307h-59.514c-6.776,0-12.263,5.492-12.263,12.263v14.438c0,6.771,5.488,12.263,12.263,12.263     h18.784c4.379,0,8.427-2.34,10.621-6.134c0.217-0.377,0.604-0.571,0.991-0.571c0.382,0,0.764,0.193,0.986,0.571     c1.095,1.897,2.657,3.43,4.487,4.492c1.836,1.057,3.945,1.642,6.134,1.642h17.51c6.771,0,12.264-5.492,12.264-12.263V49.57     C208.652,42.799,203.159,37.307,196.388,37.307z"/>
		</g>
	</g>
	<g>
		<g>
			<path class="st0" d="M196.389,35.807h-14.89c-0.828,0-1.5,0.672-1.5,1.5s0.672,1.5,1.5,1.5h14.89     c5.936,0,10.764,4.828,10.764,10.764v14.438c0,5.936-4.828,10.764-10.764,10.764h-17.511c-1.885,0-3.747-0.498-5.381-1.439     c-1.637-0.949-3-2.313-3.946-3.953c-0.482-0.822-1.335-1.312-2.28-1.312c-0.943,0-1.821,0.507-2.29,1.32     c-1.92,3.321-5.492,5.385-9.322,5.385h-18.784c-5.936,0-10.764-4.828-10.764-10.764V49.57c0-5.936,4.828-10.764,10.764-10.764     h29.487c0.828,0,1.5-0.672,1.5-1.5s-0.672-1.5-1.5-1.5h-29.487c-7.589,0-13.764,6.175-13.764,13.764v14.438     c0,7.589,6.175,13.764,13.764,13.764h18.784c4.697,0,9.091-2.427,11.609-6.373c1.185,1.858,2.808,3.417,4.729,4.531     c2.093,1.205,4.473,1.842,6.882,1.842h17.511c7.589,0,13.764-6.175,13.764-13.764V49.57     C210.152,41.981,203.978,35.807,196.389,35.807z"/>
		</g>
	</g>
	<g>
		<g>
			<path class="st5" d="M196.386,44.947h-59.514c-2.549,0-4.623,2.074-4.623,4.623v14.438c0,2.549,2.074,4.623,4.623,4.623h18.785     c1.647,0,3.181-0.886,4.004-2.312l1.783-3.088c1.215-2.105,3.392-3.362,5.823-3.362c2.431,0,4.608,1.257,5.824,3.363l1.782,3.087     c0.823,1.426,2.357,2.312,4.004,2.312h17.51c2.549,0,4.623-2.074,4.623-4.623V49.57C201.01,47.021,198.936,44.947,196.386,44.947     z"/>
		</g>
	</g>
	<g>
		<g>
			<path class="st0" d="M196.387,43.447h-59.515c-3.376,0-6.123,2.747-6.123,6.123v14.438c0,3.376,2.747,6.123,6.123,6.123h18.785     c2.181,0,4.213-1.173,5.303-3.062l1.783-3.088c0.944-1.636,2.636-2.612,4.524-2.612c1.889,0,3.58,0.977,4.524,2.613l1.782,3.087     c1.09,1.889,3.122,3.062,5.303,3.062h17.51c3.376,0,6.123-2.747,6.123-6.123V49.57C202.51,46.194,199.763,43.447,196.387,43.447z      M199.51,64.008c0,1.722-1.401,3.123-3.123,3.123h-17.51c-1.112,0-2.148-0.599-2.705-1.562l-1.782-3.087     c-1.485-2.575-4.148-4.113-7.122-4.113c-2.974,0-5.636,1.537-7.122,4.112l-1.783,3.088c-0.557,0.963-1.593,1.562-2.705,1.562     h-18.785c-1.722,0-3.123-1.401-3.123-3.123V49.57c0-1.722,1.401-3.123,3.123-3.123h59.515c1.722,0,3.123,1.401,3.123,3.123     V64.008z"/>
		</g>
	</g>
	<g>
		<g>
			<rect x="132.55" y="204.84" class="st4" width="68.164" height="34.6"/>
		</g>
	</g>
	<g>
		<g>
			<path class="st0" d="M200.714,203.34H132.55c-0.828,0-1.5,0.672-1.5,1.5v34.601c0,0.828,0.672,1.5,1.5,1.5h68.164     c0.828,0,1.5-0.672,1.5-1.5V204.84C202.214,204.012,201.542,203.34,200.714,203.34z M199.214,237.94H134.05V206.34h65.164V237.94     z"/>
		</g>
	</g>
	<g>
		<g>
			<path class="st0" d="M166.31,222.095c-0.828,0-1.5,0.672-1.5,1.5v15.846c0,0.828,0.672,1.5,1.5,1.5c0.828,0,1.5-0.672,1.5-1.5     v-15.846C167.81,222.767,167.138,222.095,166.31,222.095z"/>
		</g>
	</g>
	<g>
		<g>
			<path class="st4" d="M197.333,156.111c-2.348-3.286-3.922-9.348-3.922-16.282c0-0.776,0.02-1.542,0.058-2.293     c0.103-2.036-1.412-3.744-3.316-3.744h-2.833c-1.637,0-3.016,1.28-3.281,3.01c-1.372,8.967-8.645,15.81-17.406,15.81     c-8.762,0-16.034-6.843-17.406-15.81c-0.265-1.73-1.644-3.01-3.281-3.01h-2.833c-1.904,0-3.419,1.708-3.316,3.744     c0.038,0.751,0.058,1.517,0.058,2.293c0,6.934-1.574,12.997-3.922,16.282c-2.132,2.984-3.381,6.582-3.381,10.34v38.389h68.164     v-38.389C200.714,162.694,199.465,159.095,197.333,156.111z"/>
		</g>
	</g>
	<g>
		<g>
			<path class="st0" d="M198.554,155.239c-2.247-3.146-3.644-9.051-3.644-15.41c0-0.751,0.02-1.491,0.057-2.217     c0.072-1.426-0.438-2.823-1.397-3.834c-0.911-0.959-2.125-1.486-3.417-1.486h-2.833c-2.38,0-4.383,1.801-4.764,4.283     c-1.289,8.423-7.986,14.536-15.924,14.536c-7.938,0-14.635-6.113-15.924-14.536c-0.379-2.482-2.383-4.283-4.763-4.283h-2.834     c-1.292,0-2.505,0.527-3.415,1.485c-0.961,1.012-1.471,2.409-1.398,3.835c0.037,0.726,0.056,1.466,0.056,2.217     c0,6.36-1.395,12.266-3.643,15.41c-2.396,3.354-3.661,7.23-3.661,11.212v38.389c0,0.828,0.672,1.5,1.5,1.5h68.164     c0.828,0,1.5-0.672,1.5-1.5v-38.389C202.214,162.469,200.948,158.592,198.554,155.239z M199.214,203.34H134.05v-36.889     c0-3.353,1.073-6.627,3.102-9.468c2.631-3.683,4.201-10.096,4.201-17.154c0-0.802-0.02-1.593-0.06-2.369     c-0.031-0.608,0.179-1.197,0.576-1.615c0.339-0.356,0.779-0.553,1.241-0.553h2.834c0.888,0,1.644,0.73,1.798,1.736     c1.515,9.898,9.458,17.083,18.889,17.083c9.431,0,17.374-7.185,18.889-17.082c0.154-1.007,0.911-1.737,1.799-1.737h2.833     c0.462,0,0.903,0.196,1.242,0.553c0.397,0.418,0.607,1.007,0.576,1.615c-0.039,0.776-0.061,1.567-0.061,2.369     c0,7.059,1.571,13.471,4.202,17.154c2.029,2.84,3.102,6.114,3.102,9.468V203.34z"/>
		</g>
	</g>
	<g>
		<g>
			<path class="st3" d="M27.587,216.38h-7.63c-1.974,0-3.574,1.6-3.574,3.574v15.863c0,1.974,1.6,3.574,3.574,3.574h7.63     c1.974,0,3.574-1.6,3.574-3.574v-15.863C31.161,217.98,29.561,216.38,27.587,216.38z"/>
		</g>
	</g>
	<g>
		<g>
			<path class="st0" d="M27.587,214.88h-7.63c-2.798,0-5.074,2.275-5.074,5.073v15.864c0,2.798,2.276,5.073,5.074,5.073h7.63     c2.798,0,5.074-2.275,5.074-5.073v-15.864C32.662,217.155,30.385,214.88,27.587,214.88z M29.662,235.817     c0,1.144-0.931,2.073-2.074,2.073h-7.63c-1.143,0-2.074-0.93-2.074-2.073v-15.864c0-1.144,0.93-2.073,2.074-2.073h7.63     c1.144,0,2.074,0.93,2.074,2.073V235.817z"/>
		</g>
	</g>
	<g>
		<g>
			<path class="st1" d="M23.772,145.25c-1.956,0-3.541,1.585-3.541,3.542v67.588h7.083v-67.588     C27.314,146.835,25.728,145.25,23.772,145.25z"/>
		</g>
	</g>
	<g>
		<g>
			<path class="st0" d="M23.772,143.75c-2.78,0-5.041,2.262-5.041,5.041v67.589c0,0.828,0.671,1.5,1.5,1.5h7.083     c0.829,0,1.5-0.672,1.5-1.5v-67.589C28.814,146.012,26.552,143.75,23.772,143.75z M25.814,214.88h-4.083v-66.089     c0-1.125,0.916-2.041,2.041-2.041c1.125,0,2.042,0.916,2.042,2.041V214.88z"/>
		</g>
	</g>
	<g>
		<g>
			<path class="st2" d="M64.923,147.2l-45.167,3.703c-4.093,0.335-7.243,3.755-7.243,7.861v14.819c0,4.103,3.145,7.52,7.234,7.86     l45.167,3.755c4.598,0.382,8.541-3.246,8.541-7.86v-22.277C73.455,150.451,69.518,146.824,64.923,147.2z"/>
		</g>
	</g>
	<g>
		<g>
			<path class="st0" d="M71.929,148.158c-1.924-1.772-4.524-2.659-7.128-2.453l-45.167,3.703c-4.834,0.396-8.62,4.507-8.62,9.356     v14.818c0,4.845,3.782,8.954,8.609,9.355l45.167,3.756c0,0,0,0,0,0c0.257,0.021,0.515,0.031,0.771,0.031     c2.344,0,4.628-0.882,6.364-2.479c1.926-1.772,3.03-4.29,3.03-6.907v-22.277C74.955,152.446,73.852,149.931,71.929,148.158z      M71.955,177.339c0,1.807-0.732,3.476-2.062,4.699c-1.329,1.224-3.052,1.821-4.854,1.666l-45.167-3.756     c-3.285-0.272-5.858-3.068-5.858-6.365v-14.818c0-3.3,2.576-6.097,5.865-6.366l45.167-3.703c1.794-0.152,3.522,0.445,4.85,1.669     c1.328,1.224,2.059,2.892,2.059,4.697V177.339z"/>
		</g>
	</g>
	<g>
		<g>
			<path class="st5" d="M212.782,171.62c-1.87-1.216-3.824-2.236-5.835-3.058l-32.829,50.471l10.997,7.153l32.829-50.471     C216.376,174.209,214.652,172.836,212.782,171.62z"/>
		</g>
	</g>
	<g>
		<g>
			<path class="st0" d="M218.982,174.632c-1.645-1.579-3.455-3.016-5.383-4.271c-1.926-1.252-3.973-2.325-6.085-3.188     c-0.669-0.273-1.433-0.032-1.825,0.57l-32.83,50.472c-0.217,0.334-0.292,0.74-0.21,1.129c0.083,0.39,0.316,0.73,0.65,0.947     l10.997,7.152c0.252,0.164,0.535,0.242,0.816,0.242c0.49,0,0.971-0.24,1.259-0.682l32.829-50.472     C219.594,175.929,219.502,175.131,218.982,174.632z M184.675,224.11l-8.482-5.517l31.323-48.154     c1.536,0.696,3.028,1.514,4.448,2.437c1.422,0.925,2.773,1.958,4.032,3.08L184.675,224.11z"/>
		</g>
	</g>
	<g>
		<g>
			<path class="st5" d="M224.955,152.905l-3.701,0.784l-7.033,10.812c0.777,0.435,1.541,0.898,2.29,1.385s1.483,0.997,2.195,1.531     l7.033-10.812L224.955,152.905z"/>
		</g>
	</g>
	<g>
		<g>
			<path class="st0" d="M227.207,156.296l-0.784-3.701c-0.172-0.812-0.976-1.325-1.778-1.157l-3.701,0.784     c-0.39,0.083-0.729,0.316-0.947,0.649l-7.032,10.812c-0.226,0.348-0.298,0.774-0.198,1.177c0.1,0.403,0.361,0.747,0.724,0.95     c0.718,0.4,1.459,0.85,2.203,1.334c0.737,0.479,1.448,0.975,2.114,1.474c0.262,0.196,0.577,0.3,0.899,0.3     c0.087,0,0.175-0.008,0.262-0.023c0.409-0.072,0.77-0.311,0.996-0.658l7.033-10.812     C227.214,157.091,227.289,156.685,227.207,156.296z M218.306,165.283c-0.32-0.221-0.646-0.438-0.978-0.654     s-0.663-0.425-0.992-0.627l5.837-8.974l1.626-0.345l0.344,1.626L218.306,165.283z"/>
		</g>
	</g>
	<g>
		<g>
			<path class="st3" d="M187.17,227.521l-15.107-9.827c-2.112-1.374-4.938-0.775-6.312,1.337l-1.207,1.856     c-1.374,2.112-0.775,4.938,1.337,6.312l15.107,9.826c2.112,1.374,4.938,0.775,6.312-1.337l1.207-1.856     C189.881,231.721,189.282,228.895,187.17,227.521z"/>
		</g>
	</g>
	<g>
		<g>
			<path class="st0" d="M190.613,230.089c-0.336-1.584-1.268-2.942-2.625-3.825l-15.106-9.827c-1.357-0.883-2.98-1.182-4.563-0.849     c-1.584,0.336-2.942,1.268-3.826,2.626l-1.206,1.855c-0.884,1.357-1.185,2.978-0.85,4.562s1.268,2.942,2.626,3.826l15.106,9.826     c0.996,0.647,2.133,0.982,3.294,0.982c0.421,0,0.846-0.045,1.268-0.134c1.584-0.336,2.942-1.268,3.826-2.625l1.207-1.855     C190.647,233.293,190.949,231.674,190.613,230.089z M187.249,233.015l-1.207,1.855c-0.921,1.416-2.82,1.818-4.236,0.897     l-15.106-9.826c-0.687-0.445-1.157-1.132-1.327-1.933c-0.169-0.8-0.017-1.618,0.43-2.304l1.207-1.855     c0.445-0.687,1.132-1.157,1.933-1.327c0.213-0.045,0.428-0.067,0.641-0.067c0.586,0,1.16,0.17,1.663,0.497l15.106,9.827     c0.001,0,0.001,0,0.001,0c0.686,0.445,1.156,1.132,1.326,1.932C187.848,231.511,187.695,232.329,187.249,233.015z"/>
		</g>
	</g>
	<g>
		<g>
			<path class="st0" d="M230.268,218.211l-44.505-5.053l-22.66-38.635c-0.42-0.716-1.34-0.954-2.053-0.535     c-0.715,0.419-0.954,1.338-0.535,2.053l23.04,39.282c0.239,0.407,0.655,0.679,1.125,0.731l45.25,5.137     c0.058,0.007,0.114,0.01,0.171,0.01c0.753,0,1.401-0.565,1.488-1.331C231.683,219.047,231.091,218.304,230.268,218.211z"/>
		</g>
	</g>
	<g>
		<g>
			<path class="st4" d="M234.311,166.904l-3.887-18.353c-0.172-0.811-0.659-1.521-1.354-1.973s-1.541-0.61-2.353-0.438     l-18.353,3.887c-1.689,0.358-2.769,2.017-2.411,3.707c0.358,1.689,2.017,2.768,3.706,2.411l15.294-3.239l3.239,15.294     c0.179,0.844,0.683,1.537,1.354,1.973c0.671,0.436,1.508,0.617,2.352,0.438C233.59,170.253,234.669,168.594,234.311,166.904z"/>
		</g>
	</g>
	<g>
		<g>
			<path class="st0" d="M235.779,166.594l-3.887-18.354c-0.257-1.208-0.969-2.245-2.004-2.918c-1.02-0.664-2.29-0.901-3.481-0.648     l-18.354,3.887c-2.495,0.529-4.095,2.99-3.567,5.486c0.529,2.494,2.984,4.095,5.485,3.567l13.827-2.93l2.928,13.829     c0.257,1.208,0.969,2.244,2.003,2.917c0.76,0.495,1.628,0.75,2.516,0.75c0.32,0,0.645-0.033,0.967-0.101     C234.707,171.55,236.307,169.089,235.779,166.594z M231.592,169.144c-0.427,0.087-0.862,0.008-1.226-0.228     c-0.364-0.237-0.615-0.603-0.705-1.026l-3.238-15.295c-0.083-0.39-0.316-0.729-0.649-0.947c-0.246-0.159-0.53-0.242-0.818-0.242     c-0.104,0-0.208,0.011-0.311,0.032l-15.294,3.24c-0.879,0.188-1.742-0.378-1.929-1.254c-0.186-0.878,0.377-1.743,1.254-1.929     l18.353-3.887c0.418-0.088,0.865-0.008,1.225,0.228c0.358,0.233,0.616,0.607,0.704,1.025l3.887,18.354     C233.029,168.093,232.467,168.958,231.592,169.144z"/>
		</g>
	</g>
	<g>
		<g>
			<path class="st1" d="M235.932,223.374l-0.251-0.164c-2.955-1.922-4.161-5.642-2.933-9.045c3.086-8.554,3.212-18.048,0.355-26.733     c-2.901-8.821-8.794-16.472-16.593-21.544c-7.798-5.073-17.182-7.358-26.421-6.434c-9.098,0.909-17.725,4.873-24.294,11.162     c-2.614,2.502-6.503,2.908-9.458,0.986l-0.252-0.164c-1.583-1.03-3.701-0.581-4.73,1.002c-1.029,1.583-0.581,3.701,1.002,4.73     l0.251,0.164c5.63,3.662,12.997,2.931,17.915-1.779c5.47-5.237,12.66-8.539,20.245-9.297c7.808-0.781,15.42,1.074,22.012,5.363     c6.593,4.288,11.374,10.495,13.826,17.948c2.382,7.241,2.278,15.152-0.292,22.276c-2.311,6.405,0.007,13.436,5.637,17.098     l0.251,0.164c1.583,1.03,3.701,0.581,4.73-1.002S237.515,224.404,235.932,223.374z"/>
		</g>
	</g>
	<g>
		<g>
			<path class="st0" d="M238.88,225.221c-0.272-1.285-1.029-2.388-2.131-3.104l-0.25-0.162c-2.368-1.541-3.331-4.535-2.341-7.28     c3.199-8.868,3.331-18.709,0.369-27.71c-3.008-9.144-9.116-17.075-17.199-22.333c-8.084-5.258-17.814-7.633-27.389-6.669     c-9.429,0.942-18.372,5.052-25.181,11.571c-2.107,2.018-5.233,2.354-7.604,0.811l-0.251-0.163     c-1.101-0.716-2.414-0.959-3.701-0.688c-1.285,0.272-2.388,1.029-3.104,2.13c-0.717,1.102-0.962,2.416-0.689,3.701     c0.272,1.285,1.029,2.388,2.128,3.103l0.253,0.166c6.219,4.042,14.348,3.241,19.771-1.953c5.229-5.007,12.104-8.164,19.357-8.889     c7.462-0.741,14.741,1.026,21.044,5.128c6.305,4.1,10.875,10.034,13.22,17.16c2.277,6.924,2.179,14.487-0.278,21.298     c-2.549,7.062,0.013,14.819,6.23,18.864l0.25,0.162c0.809,0.526,1.73,0.798,2.673,0.798c0.342,0,0.687-0.035,1.029-0.108     c1.285-0.271,2.388-1.028,3.104-2.13C238.907,227.82,239.152,226.506,238.88,225.221z M235.677,227.286     c-0.28,0.43-0.71,0.725-1.212,0.831c-0.498,0.105-1.014,0.011-1.443-0.269c0-0.001-0.001-0.001-0.001-0.001l-0.25-0.163     c-5.044-3.28-7.118-9.585-5.044-15.331c2.684-7.438,2.792-15.695,0.306-23.253c-2.56-7.781-7.551-14.261-14.434-18.738     c-5.856-3.81-12.484-5.778-19.353-5.778c-1.202,0-2.412,0.06-3.626,0.182c-7.916,0.791-15.422,4.238-21.133,9.707     c-4.414,4.224-11.016,4.885-16.058,1.605l-0.254-0.166c-0.43-0.279-0.725-0.709-0.83-1.21c-0.106-0.502-0.012-1.015,0.269-1.444     c0.576-0.887,1.767-1.141,2.655-0.562l0.25,0.162c3.543,2.306,8.195,1.828,11.314-1.159c6.327-6.058,14.64-9.876,23.405-10.753     c8.901-0.887,17.94,1.312,25.454,6.2c7.513,4.886,13.19,12.257,15.985,20.755c2.753,8.367,2.632,17.514-0.342,25.755     c-1.465,4.062-0.015,8.508,3.527,10.812l0.251,0.163c0.43,0.279,0.725,0.709,0.83,1.211     C236.051,226.344,235.955,226.857,235.677,227.286z"/>
		</g>
	</g>
	<g>
		<g>
			<path class="st2" d="M24.578,188.09c-5.923,0-7.565,3.75-7.565,8.375s1.642,8.375,7.565,8.375c5.923,0,10.724-3.75,10.724-8.375     S30.5,188.09,24.578,188.09z"/>
		</g>
	</g>
	<g>
		<g>
			<path class="st0" d="M24.578,186.59c-4.135,0-9.064,1.713-9.064,9.875s4.929,9.875,9.064,9.875c6.74,0,12.224-4.43,12.224-9.875     S31.318,186.59,24.578,186.59z M24.578,203.34c-4.251,0-6.064-2.056-6.064-6.875s1.813-6.875,6.064-6.875     c5.086,0,9.224,3.084,9.224,6.875S29.664,203.34,24.578,203.34z"/>
		</g>
	</g>
	<g>
		<g>
			<path class="st2" d="M204.072,197.09c-5.923,0-10.724,3.75-10.724,8.375s4.801,8.375,10.724,8.375     c5.923,0,7.564-3.75,7.564-8.375S209.995,197.09,204.072,197.09z"/>
		</g>
	</g>
	<g>
		<g>
			<path class="st0" d="M204.072,195.59c-6.74,0-12.225,4.43-12.225,9.875s5.484,9.875,12.225,9.875     c4.135,0,9.064-1.713,9.064-9.875S208.207,195.59,204.072,195.59z M204.072,212.34c-5.087,0-9.225-3.084-9.225-6.875     s4.138-6.875,9.225-6.875c4.251,0,6.064,2.056,6.064,6.875S208.323,212.34,204.072,212.34z"/>
		</g>
	</g>
	<g>
		<g>
			<path class="st9" d="M195.71,212.648l-0.993,1.527l4.497,0.51v-0.164C197.911,214.064,196.731,213.424,195.71,212.648z"/>
		</g>
	</g>
	<g>
		<g>
			<rect x="86.97" y="196.49" class="st9" width="15" height="41.68"/>
		</g>
	</g>
	<g>
		<g>
			<path class="st9" d="M98.86,147.13c-2.63-3.68-4.2-10.1-4.2-17.16c0-0.8,0.02-1.59,0.06-2.37c0.03-0.6-0.18-1.19-0.57-1.61     c-0.34-0.36-0.78-0.55-1.25-0.55h-2.83c-0.89,0-1.64,0.73-1.8,1.73c-0.82,5.4-3.56,9.99-7.4,13.04c0.72,2.77,1.73,5.16,2.99,6.92     c2.03,2.84,3.11,6.11,3.11,9.47v36.89h15V156.6C101.97,153.24,100.89,149.97,98.86,147.13z"/>
		</g>
	</g>
	<g>
		<g>
			<path class="st9" d="M192.888,216.986l-5.697,8.759l0.797,0.519c1.357,0.883,2.289,2.241,2.625,3.825     c0.336,1.585,0.034,3.204-0.849,4.562l-1.207,1.855c-0.366,0.562-0.829,1.03-1.339,1.434h11.996v-20.236L192.888,216.986z"/>
		</g>
	</g>
	<g>
		<g>
			<path class="st9" d="M190.92,167.75c-2.28,0.23-4.54,0.7-6.71,1.39v8.56l-10.12,15.56l5.91,10.08h2.54l16.67-25.64v-9.73     C196.5,167.55,193.72,167.47,190.92,167.75z"/>
		</g>
	</g>
	<g>
		<g>
			<path class="st9" d="M196.11,156.98c-2.63-3.68-4.2-10.09-4.2-17.15c0-0.8,0.02-1.6,0.06-2.37c0.03-0.61-0.18-1.2-0.58-1.62     c-0.33-0.35-0.78-0.55-1.24-0.55h-2.83c-0.89,0-1.64,0.73-1.8,1.74c-0.82,5.39-3.55,9.97-7.4,13.03     c0.72,2.78,1.74,5.16,2.99,6.92c0.015,0.021,0.028,0.043,0.042,0.064c0.692,0.643,1.234,1.416,1.631,2.263     c2.335-0.649,4.729-1.105,7.156-1.347c2.24-0.22,4.5-0.26,6.74-0.12C196.49,157.55,196.31,157.26,196.11,156.98z"/>
		</g>
	</g>
	<g>
		<g>
			<polygon class="st9" points="167.81,230.243 167.81,237.94 179.645,237.94    "/>
		</g>
	</g>
	<g>
		<g>
			<path class="st9" d="M178.29,206.34h-15l1.09,1.86l-5.7,8.76l-0.8-0.52c-2.8-1.83-6.56-1.03-8.39,1.77l-1.2,1.86     c-0.89,1.36-1.19,2.98-0.85,4.56c0.31,1.48,1.16,2.74,2.37,3.62v9.69h15v-9.69c-1.21-0.88-2.06-2.14-2.37-3.62     c-0.34-1.58-0.04-3.2,0.85-4.56l1.2-1.86c1.83-2.8,5.59-3.6,8.39-1.77l0.8,0.52l5.7-8.76L178.29,206.34z"/>
		</g>
	</g>
</g>
</svg>
