<svg height="512pt" viewBox="0 -5 512 511" width="512pt" xmlns="http://www.w3.org/2000/svg"><path d="m11 256.5c0-135.132812 109.402344-244.710938 244.464844-245 135.914062-.289062 245.460937 108.945312 245.535156 244.859375.039062 67.046875-26.863281 127.804687-70.464844 172.0625-7.140625 7.25-18.550781 7.882813-26.65625 1.734375-41.097656-31.160156-92.328125-49.65625-147.878906-49.65625-55.667969 0-106.996094 18.574219-148.136719 49.855469-8.003906 6.082031-19.226562 5.335937-26.289062-1.820313-43.636719-44.238281-70.574219-104.988281-70.574219-172.035156zm0 0" fill="#b0dde9"/><path d="m266 258.082031c0 5.523438-4.476562 10-10 10s-10-4.476562-10-10c0-5.523437 4.476562-10 10-10s10 4.476563 10 10zm-10-47.582031c-5.523438 0-10 4.476562-10 10s4.476562 10 10 10 10-4.476562 10-10-4.476562-10-10-10zm0-37.582031c-5.523438 0-10 4.476562-10 10 0 5.523437 4.476562 10 10 10s10-4.476563 10-10c0-5.523438-4.476562-10-10-10zm-53.785156 78.09375c-3.902344 3.90625-3.902344 10.238281 0 14.140625 3.90625 3.90625 10.238281 3.90625 14.144531 0 3.902344-3.902344 3.902344-10.234375 0-14.140625-3.90625-3.90625-10.238281-3.90625-14.144531 0zm-26.574219-26.574219c-3.90625 3.90625-3.90625 10.238281 0 14.140625 3.90625 3.90625 10.238281 3.90625 14.140625 0 3.90625-3.902344 3.90625-10.234375 0-14.140625-3.902344-3.90625-10.234375-3.90625-14.140625 0zm-26.574219-26.574219c-3.90625 3.902344-3.90625 10.234375 0 14.140625s10.238282 3.90625 14.140625 0c3.90625-3.90625 3.90625-10.238281 0-14.140625-3.902343-3.90625-10.234375-3.90625-14.140625 0zm213.867188 0c-3.90625-3.90625-10.238282-3.90625-14.140625 0-3.90625 3.902344-3.90625 10.234375 0 14.140625 3.902343 3.90625 10.234375 3.90625 14.140625 0s3.90625-10.238281 0-14.140625zm-40.71875 26.574219c-3.902344 3.90625-3.902344 10.238281 0 14.140625 3.90625 3.90625 10.238281 3.90625 14.144531 0 3.902344-3.902344 3.902344-10.234375 0-14.140625-3.90625-3.90625-10.238281-3.90625-14.144531 0zm-26.574219 26.574219c-3.90625 3.90625-3.90625 10.238281 0 14.140625 3.90625 3.90625 10.238281 3.90625 14.140625 0 3.90625-3.902344 3.90625-10.234375 0-14.140625-3.902344-3.90625-10.234375-3.90625-14.140625 0zm0 0" fill="#95bcc9"/><path d="m431 275.5v152.441406c-44.46875 45.382813-106.441406 73.558594-175 73.558594s-130.53125-28.175781-175-73.558594v-126.078125l-61.269531 36.757813c-8.683594 5.210937-19.730469-1.042969-19.730469-11.171875 0-4.363281 2.1875-8.4375 5.824219-10.851563l81.59375-53.386718c.191406-.136719.800781-.515626.800781-.515626 2.269531-1.382812 4.929688-2.195312 7.78125-2.195312h320c8.285156 0 15 6.714844 15 15zm0 0" fill="#dca050"/><path d="m512 327.449219c0 10.128906-11.046875 16.382812-19.730469 11.171875l-61.269531-36.757813v126.078125c-44.46875 45.382813-106.441406 73.558594-175 73.558594-54.710938 0-105.222656-17.9375-146-48.242188v-177.757812c0-8.285156 6.714844-15 15-15h291c2.855469 0 5.503906.785156 7.777344 2.171875 0 0 .589844.375.785156.507813l81.613281 53.417968c3.636719 2.414063 5.824219 6.488282 5.824219 10.851563zm0 0" fill="#ebae56"/><path d="m186.855469 450.5v16.570312c0 5.523438-4.476563 10-10 10h-16.570313c-5.523437 0-10-4.476562-10-10v-16.570312c0-5.523438 4.476563-10 10-10h16.570313c5.523437 0 10 4.476562 10 10zm-60.285157-10h-16.570312c-3.984375 0-7.417969 2.339844-9.023438 5.714844 10.949219 8.957031 22.691407 16.976562 35.097657 23.957031.320312-.976563.496093-2.019531.496093-3.101563v-16.570312c0-5.523438-4.476562-10-10-10zm100.574219 0h-16.574219c-5.519531 0-10 4.476562-10 10v16.570312c0 5.523438 4.480469 10 10 10h16.574219c5.519531 0 10-4.476562 10-10v-16.570312c0-5.523438-4.480469-10-10-10zm0 0" fill="#ce9047"/><path d="m94.859375 259.542969c.375-.027344.757813-.042969 1.140625-.042969h320 .164062c7.417969.078125 12.578126 7.460938 10.429688 14.5625l-33.371094 110.28125c-1.914062 6.328125-7.746094 10.65625-14.355468 10.65625h-247.574219c-6.6875 0-12.566407-4.425781-14.414063-10.851562l-31.734375-110.246094c-1.945312-6.765625 2.691407-13.832032 9.714844-14.359375zm0 0" fill="#fff2b4"/><path d="m336 80.5c0 44.183594-35.816406 80-80 80s-80-35.816406-80-80 35.816406-80 80-80 80 35.816406 80 80zm0 0" fill="#73d37a"/><path d="m320.421875 127.921875c-14.566406 19.757813-37.992187 32.578125-64.421875 32.578125-44.183594 0-80-35.816406-80-80 0-26.429688 12.820312-49.855469 32.578125-64.421875-9.785156 13.269531-15.578125 29.667969-15.578125 47.421875 0 44.183594 35.816406 80 80 80 17.753906 0 34.152344-5.792969 47.421875-15.578125zm0 0" fill="#49cb5c"/><path d="m280.070312 30.5c3.90625 0 7.757813.871094 11.28125 2.550781l13.367188 6.363281c1.394531.664063 2.28125 2.070313 2.28125 3.609376v23.476562c0 2.210938-1.789062 4-4 4h-17v55c0 2.761719-2.238281 5-5 5h-50c-2.761719 0-5-2.238281-5-5v-55h-17c-2.210938 0-4-1.789062-4-4v-23.472656c0-1.542969.886719-2.949219 2.28125-3.613282l13.367188-6.363281c3.523437-1.679687 7.378906-2.550781 11.28125-2.550781 1.042968 0 2.054687.398438 2.789062 1.140625 5.433594 5.46875 12.960938 8.859375 21.28125 8.859375s15.847656-3.390625 21.28125-8.863281c.734375-.738281 1.746094-1.136719 2.789062-1.136719zm0 0" fill="#ddf4ba"/><path d="m160 130.5c0 44.183594-35.816406 80-80 80s-80-35.816406-80-80 35.816406-80 80-80 80 35.816406 80 80zm0 0" fill="#fd7a7a"/><path d="m144.421875 177.921875c-14.566406 19.757813-37.992187 32.578125-64.421875 32.578125-44.183594 0-80-35.816406-80-80 0-26.429688 12.820312-49.855469 32.578125-64.421875-9.785156 13.269531-15.578125 29.667969-15.578125 47.421875 0 44.183594 35.816406 80 80 80 17.753906 0 34.152344-5.792969 47.421875-15.578125zm0 0" fill="#fd5757"/><path d="m125 137.421875c0 19.234375-20.148438 43.539063-45 43.539063s-45-24.304688-45-43.539063c0-8.074219 3.550781-13.972656 9.511719-18.097656 6.136719-4.253907 14.011719-4.84375 20.96875-2.121094 3.050781 1.195313 6.25 2.035156 9.554687 2.46875.199219-3.949219 1.328125-7.660156 3.160156-10.917969-6.894531 2.585938-15.21875.917969-21.0625-4.925781-6.15625-6.152344-7.683593-15.070313-4.480468-22.15625 7.089844-3.203125 16.003906-1.675781 22.15625 4.480469 5.414062 5.410156 7.246094 12.957031 5.429687 19.523437 4.578125-5.90625 11.734375-9.714843 19.765625-9.714843 2.761719 0 5 2.234374 5 5 0 2.761718-2.238281 5-5 5-7.832031 0-14.273437 6.03125-14.9375 13.695312 3.273438-.433594 6.4375-1.273438 9.457032-2.453125 6.953124-2.722656 14.828124-2.132813 20.96875 2.117187 5.957031 4.128907 9.507812 10.027344 9.507812 18.101563zm0 0" fill="#fdcbbb"/><path d="m512 130.5c0 44.183594-35.816406 80-80 80s-80-35.816406-80-80 35.816406-80 80-80 80 35.816406 80 80zm0 0" fill="#649eb0"/><path d="m496.421875 177.921875c-14.566406 19.757813-37.992187 32.578125-64.421875 32.578125-44.183594 0-80-35.816406-80-80 0-26.429688 12.820312-49.855469 32.578125-64.421875-9.785156 13.269531-15.578125 29.667969-15.578125 47.421875 0 44.183594 35.816406 80 80 80 17.753906 0 34.152344-5.792969 47.421875-15.578125zm0 0" fill="#458fa4"/><path d="m413.5 115.5c0 4.140625-3.359375 7.5-7.5 7.5s-7.5-3.359375-7.5-7.5 3.359375-7.5 7.5-7.5 7.5 3.359375 7.5 7.5zm52.5-7.5c-4.140625 0-7.5 3.359375-7.5 7.5s3.359375 7.5 7.5 7.5 7.5-3.359375 7.5-7.5-3.359375-7.5-7.5-7.5zm24 47.113281c0 8.5-6.890625 15.386719-15.386719 15.386719-7.332031 0-13.648437-5.175781-15.085937-12.367188l-.386719-1.945312c-1.828125-9.121094-9.835937-15.6875-19.140625-15.6875h-8c-9.300781 0-17.3125 6.566406-19.136719 15.6875l-.386719 1.945312c-1.441406 7.191407-7.753906 12.367188-15.089843 12.367188-8.496094 0-15.382813-6.890625-15.382813-15.386719 0-9.726562.769532-19.4375 2.308594-29.042969l3.058594-19.136718c1.515625-9.46875 9.683594-16.433594 19.273437-16.433594h58.714844c9.585937 0 17.753906 6.964844 19.269531 16.433594l3.0625 19.136718c1.535156 9.605469 2.308594 19.316407 2.308594 29.042969zm-69-39.613281c0-8.285156-6.714844-15-15-15s-15 6.714844-15 15 6.714844 15 15 15 15-6.714844 15-15zm13 11c0-2.210938-1.789062-4-4-4s-4 1.789062-4 4 1.789062 4 4 4 4-1.789062 4-4zm12 0c0-2.210938-1.789062-4-4-4s-4 1.789062-4 4 1.789062 4 4 4 4-1.789062 4-4zm35-11c0-8.285156-6.714844-15-15-15s-15 6.714844-15 15 6.714844 15 15 15 15-6.714844 15-15zm0 0" fill="#b0dde9"/></svg>